# xmcd
#
# Track frame offsets: 
#        150
#        26498
#        53647
#        69995
#        99730
#        118193
#        133637
#        152156
#
# Disc length: 2299 seconds
#
# Revision: 0
# Processed by: cddbd v1.5.2PL0 Copyright (c) Steve Scherf et al.
# Submitted via: ExactAudioCopyFreeDBPlugin 1.0
#
DISCID=6708f908
DTITLE=Pete Hayes - Turakina... Landed
DYEAR=2009
DGENRE=New Zealand: Country/Blues
TTITLE0=The Big Dry
TTITLE1=Lost
TTITLE2=Ray's Blues
TTITLE3=Moving On
TTITLE4=Tales from the Land
TTITLE5=The Coast: a) Turakina Beach
TTITLE6=The Coast: b) Wahine 10 April 68
TTITLE7=The Coast: c) Precious Time
EXTD=
EXTT0=
EXTT1=
EXTT2=
EXTT3=
EXTT4=
EXTT5=
EXTT6=
EXTT7=
PLAYORDER=
